<svg width="274" height="568" viewBox="0 0 274 568" fill="none" xmlns="http://www.w3.org/2000/svg">
<rect width="274" height="568" rx="10" fill="#483EFF"/>
<mask id="mask0_1_244" style="mask-type:luminance" maskUnits="userSpaceOnUse" x="0" y="0" width="274" height="568">
<rect width="274" height="568" rx="10" fill="white"/>
</mask>
<g mask="url(#mask0_1_244)">
<path fill-rule="evenodd" clip-rule="evenodd" d="M-34.6921 543.101C3.24693 632.538 168.767 685.017 211.961 612.52C255.155 540.023 145.862 526.867 107.226 451.951C68.5909 377.035 38.5692 330.277 -17.2556 347.344C-73.0804 364.412 -72.6312 453.664 -34.6921 543.101Z" fill="#6259FF"/>
<path fill-rule="evenodd" clip-rule="evenodd" d="M233.095 601.153C293.774 572.875 325.934 457.627 274.97 429.625C224.005 401.622 217.573 477.204 166.911 505.612C116.249 534.02 84.771 555.819 97.867 593.853C110.963 631.887 172.416 629.431 233.095 601.153Z" fill="#F9818E"/>
<path d="M165.305 469.097L175.912 458.291" stroke="white" stroke-width="5" stroke-linecap="round" stroke-linejoin="bevel"/>
<path d="M209.461 474.581L196.955 464.078" stroke="white" stroke-width="5" stroke-linecap="round" stroke-linejoin="bevel"/>
<path d="M187.56 488.991L180.652 503.789" stroke="white" stroke-width="5" stroke-linecap="round" stroke-linejoin="bevel"/>
<path d="M0.304688 546.891C37.3078 546.891 67.3047 516.894 67.3047 479.891C67.3047 442.888 37.3078 412.891 0.304688 412.891C-36.6984 412.891 -66.6953 442.888 -66.6953 479.891C-66.6953 516.894 -36.6984 546.891 0.304688 546.891Z" fill="#FFAF7E"/>
</g>
<g clip-path="url(#clip0_1_244)">
<g clip-path="url(#clip1_1_244)">
<path d="M85.676 65.288C86.068 64.6253 86.4413 63.9627 86.796 63.3C87.1507 62.6373 87.4773 61.97 87.776 61.298H90.184C89.652 62.3433 89.1013 63.356 88.532 64.336C87.9627 65.316 87.3607 66.3007 86.726 67.29V71H84.542V67.318C83.9073 66.3287 83.3007 65.3393 82.722 64.35C82.1527 63.3607 81.602 62.3433 81.07 61.298H83.604C83.9027 61.97 84.2247 62.6373 84.57 63.3C84.9153 63.9627 85.284 64.6253 85.676 65.288ZM93.581 66.142C93.581 66.618 93.637 67.0473 93.749 67.43C93.8703 67.8127 94.0383 68.144 94.253 68.424C94.477 68.6947 94.7476 68.9047 95.065 69.054C95.3823 69.2033 95.7463 69.278 96.157 69.278C96.5583 69.278 96.9176 69.2033 97.235 69.054C97.5616 68.9047 97.8323 68.6947 98.047 68.424C98.271 68.144 98.439 67.8127 98.551 67.43C98.6723 67.0473 98.733 66.618 98.733 66.142C98.733 65.666 98.6723 65.2367 98.551 64.854C98.439 64.462 98.271 64.1307 98.047 63.86C97.8323 63.58 97.5616 63.3653 97.235 63.216C96.9176 63.0667 96.5583 62.992 96.157 62.992C95.7463 62.992 95.3823 63.0713 95.065 63.23C94.7476 63.3793 94.477 63.594 94.253 63.874C94.0383 64.1447 93.8703 64.476 93.749 64.868C93.637 65.2507 93.581 65.6753 93.581 66.142ZM100.987 66.142C100.987 66.9727 100.861 67.7053 100.609 68.34C100.366 68.9653 100.03 69.4927 99.601 69.922C99.1716 70.342 98.6583 70.6593 98.061 70.874C97.473 71.0887 96.8383 71.196 96.157 71.196C95.4943 71.196 94.869 71.0887 94.281 70.874C93.693 70.6593 93.1796 70.342 92.741 69.922C92.3023 69.4927 91.957 68.9653 91.705 68.34C91.453 67.7053 91.327 66.9727 91.327 66.142C91.327 65.3113 91.4576 64.5833 91.719 63.958C91.9803 63.3233 92.3303 62.7913 92.769 62.362C93.217 61.9327 93.7303 61.6107 94.309 61.396C94.897 61.1813 95.513 61.074 96.157 61.074C96.8196 61.074 97.445 61.1813 98.033 61.396C98.621 61.6107 99.1343 61.9327 99.573 62.362C100.012 62.7913 100.357 63.3233 100.609 63.958C100.861 64.5833 100.987 65.3113 100.987 66.142ZM107.602 71.196C106.92 71.196 106.332 71.1027 105.838 70.916C105.343 70.72 104.932 70.454 104.606 70.118C104.288 69.7727 104.05 69.3667 103.892 68.9C103.742 68.424 103.668 67.9013 103.668 67.332V61.298H105.852V67.15C105.852 67.542 105.894 67.878 105.978 68.158C106.071 68.4287 106.192 68.6527 106.342 68.83C106.5 68.998 106.687 69.1193 106.902 69.194C107.126 69.2687 107.368 69.306 107.63 69.306C108.162 69.306 108.591 69.1427 108.918 68.816C109.254 68.4893 109.422 67.934 109.422 67.15V61.298H111.606V67.332C111.606 67.9013 111.526 68.424 111.368 68.9C111.209 69.376 110.966 69.7867 110.64 70.132C110.313 70.468 109.898 70.7293 109.394 70.916C108.89 71.1027 108.292 71.196 107.602 71.196ZM117.548 61.186C119.004 61.186 120.119 61.4473 120.894 61.97C121.669 62.4833 122.056 63.286 122.056 64.378C122.056 65.0593 121.897 65.6147 121.58 66.044C121.272 66.464 120.824 66.7953 120.236 67.038C120.432 67.2807 120.637 67.5607 120.852 67.878C121.067 68.186 121.277 68.5127 121.482 68.858C121.697 69.194 121.902 69.5487 122.098 69.922C122.294 70.286 122.476 70.6453 122.644 71H120.194C120.017 70.6827 119.835 70.3607 119.648 70.034C119.471 69.7073 119.284 69.39 119.088 69.082C118.901 68.774 118.715 68.4847 118.528 68.214C118.341 67.934 118.155 67.682 117.968 67.458H116.89V71H114.706V61.438C115.182 61.3447 115.672 61.2793 116.176 61.242C116.689 61.2047 117.147 61.186 117.548 61.186ZM117.674 63.048C117.515 63.048 117.371 63.0527 117.24 63.062C117.119 63.0713 117.002 63.0807 116.89 63.09V65.722H117.506C118.327 65.722 118.915 65.6193 119.27 65.414C119.625 65.2087 119.802 64.8587 119.802 64.364C119.802 63.888 119.62 63.552 119.256 63.356C118.901 63.1507 118.374 63.048 117.674 63.048ZM129.407 61.298H131.591V71H129.407V61.298ZM141.347 71C140.721 69.8893 140.045 68.7927 139.317 67.71C138.589 66.6273 137.814 65.6053 136.993 64.644V71H134.837V61.298H136.615C136.923 61.606 137.263 61.984 137.637 62.432C138.01 62.88 138.388 63.3607 138.771 63.874C139.163 64.378 139.55 64.9053 139.933 65.456C140.315 65.9973 140.675 66.52 141.011 67.024V61.298H143.181V71H141.347ZM146.419 71V61.298H152.915V63.132H148.603V65.162H152.439V66.996H148.603V71H146.419ZM157.183 66.142C157.183 66.618 157.239 67.0473 157.351 67.43C157.472 67.8127 157.64 68.144 157.855 68.424C158.079 68.6947 158.349 68.9047 158.667 69.054C158.984 69.2033 159.348 69.278 159.759 69.278C160.16 69.278 160.519 69.2033 160.837 69.054C161.163 68.9047 161.434 68.6947 161.649 68.424C161.873 68.144 162.041 67.8127 162.153 67.43C162.274 67.0473 162.335 66.618 162.335 66.142C162.335 65.666 162.274 65.2367 162.153 64.854C162.041 64.462 161.873 64.1307 161.649 63.86C161.434 63.58 161.163 63.3653 160.837 63.216C160.519 63.0667 160.16 62.992 159.759 62.992C159.348 62.992 158.984 63.0713 158.667 63.23C158.349 63.3793 158.079 63.594 157.855 63.874C157.64 64.1447 157.472 64.476 157.351 64.868C157.239 65.2507 157.183 65.6753 157.183 66.142ZM164.589 66.142C164.589 66.9727 164.463 67.7053 164.211 68.34C163.968 68.9653 163.632 69.4927 163.203 69.922C162.773 70.342 162.26 70.6593 161.663 70.874C161.075 71.0887 160.44 71.196 159.759 71.196C159.096 71.196 158.471 71.0887 157.883 70.874C157.295 70.6593 156.781 70.342 156.343 69.922C155.904 69.4927 155.559 68.9653 155.307 68.34C155.055 67.7053 154.929 66.9727 154.929 66.142C154.929 65.3113 155.059 64.5833 155.321 63.958C155.582 63.3233 155.932 62.7913 156.371 62.362C156.819 61.9327 157.332 61.6107 157.911 61.396C158.499 61.1813 159.115 61.074 159.759 61.074C160.421 61.074 161.047 61.1813 161.635 61.396C162.223 61.6107 162.736 61.9327 163.175 62.362C163.613 62.7913 163.959 63.3233 164.211 63.958C164.463 64.5833 164.589 65.3113 164.589 66.142Z" fill="white"/>
<path d="M83.964 50.172C85.18 50.172 85.788 49.756 85.788 48.924C85.788 48.668 85.732 48.452 85.62 48.276C85.516 48.092 85.372 47.936 85.188 47.808C85.004 47.672 84.792 47.556 84.552 47.46C84.32 47.364 84.072 47.268 83.808 47.172C83.504 47.068 83.216 46.952 82.944 46.824C82.672 46.688 82.436 46.532 82.236 46.356C82.036 46.172 81.876 45.956 81.756 45.708C81.644 45.46 81.588 45.16 81.588 44.808C81.588 44.08 81.836 43.512 82.332 43.104C82.828 42.696 83.512 42.492 84.384 42.492C84.888 42.492 85.344 42.548 85.752 42.66C86.168 42.764 86.472 42.88 86.664 43.008L86.292 43.956C86.124 43.852 85.872 43.752 85.536 43.656C85.208 43.552 84.824 43.5 84.384 43.5C84.16 43.5 83.952 43.524 83.76 43.572C83.568 43.62 83.4 43.692 83.256 43.788C83.112 43.884 82.996 44.008 82.908 44.16C82.828 44.304 82.788 44.476 82.788 44.676C82.788 44.9 82.832 45.088 82.92 45.24C83.008 45.392 83.132 45.528 83.292 45.648C83.452 45.76 83.636 45.864 83.844 45.96C84.06 46.056 84.296 46.152 84.552 46.248C84.912 46.392 85.24 46.536 85.536 46.68C85.84 46.824 86.1 46.996 86.316 47.196C86.54 47.396 86.712 47.636 86.832 47.916C86.952 48.188 87.012 48.52 87.012 48.912C87.012 49.64 86.744 50.2 86.208 50.592C85.68 50.984 84.932 51.18 83.964 51.18C83.636 51.18 83.332 51.156 83.052 51.108C82.78 51.068 82.536 51.02 82.32 50.964C82.104 50.9 81.916 50.836 81.756 50.772C81.604 50.7 81.484 50.64 81.396 50.592L81.744 49.632C81.928 49.736 82.208 49.852 82.584 49.98C82.96 50.108 83.42 50.172 83.964 50.172ZM93.9747 42.684V43.692H91.3587V51H90.1947V43.692H87.5787V42.684H93.9747ZM95.2039 51V42.684H100.28V43.68H96.3679V46.152H99.8479V47.124H96.3679V50.004H100.58V51H95.2039ZM104.267 42.6C105.435 42.6 106.331 42.824 106.955 43.272C107.587 43.712 107.903 44.372 107.903 45.252C107.903 45.732 107.815 46.144 107.639 46.488C107.471 46.824 107.223 47.1 106.895 47.316C106.575 47.524 106.183 47.676 105.719 47.772C105.255 47.868 104.731 47.916 104.147 47.916H103.223V51H102.059V42.804C102.387 42.724 102.751 42.672 103.151 42.648C103.559 42.616 103.931 42.6 104.267 42.6ZM104.363 43.62C103.867 43.62 103.487 43.632 103.223 43.656V46.92H104.099C104.499 46.92 104.859 46.896 105.179 46.848C105.499 46.792 105.767 46.704 105.983 46.584C106.207 46.456 106.379 46.284 106.499 46.068C106.619 45.852 106.679 45.576 106.679 45.24C106.679 44.92 106.615 44.656 106.487 44.448C106.367 44.24 106.199 44.076 105.983 43.956C105.775 43.828 105.531 43.74 105.251 43.692C104.971 43.644 104.675 43.62 104.363 43.62ZM112.221 44.4C112.677 44.224 113.121 44 113.553 43.728C113.985 43.448 114.381 43.1 114.741 42.684H115.533V51H114.417V44.232C114.321 44.32 114.201 44.412 114.057 44.508C113.921 44.604 113.769 44.696 113.601 44.784C113.441 44.872 113.269 44.956 113.085 45.036C112.909 45.116 112.737 45.184 112.569 45.24L112.221 44.4Z" fill="#ABBCFF"/>
</g>
<circle cx="48.5" cy="56.5" r="16.5" fill="#BEE2FD"/>
<path d="M46.0015 54.314C46.2722 54.202 46.5522 54.076 46.8415 53.936C47.1402 53.7867 47.4295 53.628 47.7095 53.46C47.9895 53.2827 48.2555 53.1007 48.5075 52.914C48.7688 52.718 49.0022 52.5127 49.2075 52.298H50.6635V62H48.5775V55.014C48.2975 55.2007 47.9848 55.3733 47.6395 55.532C47.2942 55.6813 46.9582 55.812 46.6315 55.924L46.0015 54.314Z" fill="#022959"/>
</g>
<g clip-path="url(#clip2_1_244)">
<g clip-path="url(#clip3_1_244)">
<path d="M84.766 134.334C85.074 134.334 85.326 134.311 85.522 134.264C85.7273 134.208 85.8907 134.138 86.012 134.054C86.1333 133.961 86.2173 133.853 86.264 133.732C86.3107 133.611 86.334 133.475 86.334 133.326C86.334 133.009 86.1847 132.747 85.886 132.542C85.5873 132.327 85.074 132.099 84.346 131.856C84.0287 131.744 83.7113 131.618 83.394 131.478C83.0767 131.329 82.792 131.147 82.54 130.932C82.288 130.708 82.0827 130.442 81.924 130.134C81.7653 129.817 81.686 129.434 81.686 128.986C81.686 128.538 81.77 128.137 81.938 127.782C82.106 127.418 82.344 127.11 82.652 126.858C82.96 126.606 83.3333 126.415 83.772 126.284C84.2107 126.144 84.7053 126.074 85.256 126.074C85.9093 126.074 86.474 126.144 86.95 126.284C87.426 126.424 87.818 126.578 88.126 126.746L87.496 128.468C87.2253 128.328 86.922 128.207 86.586 128.104C86.2593 127.992 85.8627 127.936 85.396 127.936C84.8733 127.936 84.4953 128.011 84.262 128.16C84.038 128.3 83.926 128.519 83.926 128.818C83.926 128.995 83.968 129.145 84.052 129.266C84.136 129.387 84.2527 129.499 84.402 129.602C84.5607 129.695 84.738 129.784 84.934 129.868C85.1393 129.943 85.3633 130.022 85.606 130.106C86.11 130.293 86.5487 130.479 86.922 130.666C87.2953 130.843 87.6033 131.053 87.846 131.296C88.098 131.539 88.2847 131.823 88.406 132.15C88.5273 132.477 88.588 132.873 88.588 133.34C88.588 134.245 88.2707 134.95 87.636 135.454C87.0013 135.949 86.0447 136.196 84.766 136.196C84.3367 136.196 83.9493 136.168 83.604 136.112C83.2587 136.065 82.9507 136.005 82.68 135.93C82.4187 135.855 82.19 135.776 81.994 135.692C81.8073 135.608 81.6487 135.529 81.518 135.454L82.134 133.718C82.4233 133.877 82.778 134.021 83.198 134.152C83.6273 134.273 84.15 134.334 84.766 134.334ZM91.2684 136V126.298H97.8204V128.132H93.4524V130.036H97.3304V131.828H93.4524V134.166H98.1424V136H91.2684ZM107.241 134.124V136H100.759V126.298H102.943V134.124H107.241ZM109.647 136V126.298H116.199V128.132H111.831V130.036H115.709V131.828H111.831V134.166H116.521V136H109.647ZM123.562 136.196C121.984 136.196 120.78 135.757 119.95 134.88C119.128 134.003 118.718 132.757 118.718 131.142C118.718 130.339 118.844 129.625 119.096 129C119.348 128.365 119.693 127.833 120.132 127.404C120.57 126.965 121.093 126.634 121.7 126.41C122.306 126.186 122.964 126.074 123.674 126.074C124.084 126.074 124.458 126.107 124.794 126.172C125.13 126.228 125.424 126.298 125.676 126.382C125.928 126.457 126.138 126.536 126.306 126.62C126.474 126.704 126.595 126.769 126.67 126.816L126.04 128.58C125.741 128.421 125.391 128.286 124.99 128.174C124.598 128.062 124.15 128.006 123.646 128.006C123.31 128.006 122.978 128.062 122.652 128.174C122.334 128.286 122.05 128.468 121.798 128.72C121.555 128.963 121.359 129.28 121.21 129.672C121.06 130.064 120.986 130.54 120.986 131.1C120.986 131.548 121.032 131.968 121.126 132.36C121.228 132.743 121.387 133.074 121.602 133.354C121.826 133.634 122.115 133.858 122.47 134.026C122.824 134.185 123.254 134.264 123.758 134.264C124.075 134.264 124.36 134.245 124.612 134.208C124.864 134.171 125.088 134.129 125.284 134.082C125.48 134.026 125.652 133.965 125.802 133.9C125.951 133.835 126.086 133.774 126.208 133.718L126.81 135.468C126.502 135.655 126.068 135.823 125.508 135.972C124.948 136.121 124.299 136.196 123.562 136.196ZM136.712 126.298V128.16H133.786V136H131.602V128.16H128.676V126.298H136.712ZM146.391 126.186C147.838 126.186 148.949 126.443 149.723 126.956C150.498 127.46 150.885 128.291 150.885 129.448C150.885 130.615 150.493 131.459 149.709 131.982C148.925 132.495 147.805 132.752 146.349 132.752H145.663V136H143.479V126.438C143.955 126.345 144.459 126.279 144.991 126.242C145.523 126.205 145.99 126.186 146.391 126.186ZM146.531 128.048C146.373 128.048 146.214 128.053 146.055 128.062C145.906 128.071 145.775 128.081 145.663 128.09V130.89H146.349C147.105 130.89 147.675 130.787 148.057 130.582C148.44 130.377 148.631 129.994 148.631 129.434C148.631 129.163 148.58 128.939 148.477 128.762C148.384 128.585 148.244 128.445 148.057 128.342C147.88 128.23 147.661 128.155 147.399 128.118C147.138 128.071 146.849 128.048 146.531 128.048ZM159.971 134.124V136H153.489V126.298H155.673V134.124H159.971ZM169.311 136C169.209 135.664 169.092 135.319 168.961 134.964C168.84 134.609 168.719 134.255 168.597 133.9H164.817C164.696 134.255 164.57 134.609 164.439 134.964C164.318 135.319 164.206 135.664 164.103 136H161.835C162.199 134.955 162.545 133.989 162.871 133.102C163.198 132.215 163.515 131.38 163.823 130.596C164.141 129.812 164.449 129.07 164.747 128.37C165.055 127.661 165.373 126.97 165.699 126.298H167.785C168.103 126.97 168.415 127.661 168.723 128.37C169.031 129.07 169.339 129.812 169.647 130.596C169.965 131.38 170.287 132.215 170.613 133.102C170.94 133.989 171.285 134.955 171.649 136H169.311ZM166.693 128.496C166.647 128.636 166.577 128.827 166.483 129.07C166.39 129.313 166.283 129.593 166.161 129.91C166.04 130.227 165.905 130.577 165.755 130.96C165.615 131.343 165.471 131.744 165.321 132.164H168.079C167.93 131.744 167.785 131.343 167.645 130.96C167.505 130.577 167.37 130.227 167.239 129.91C167.118 129.593 167.011 129.313 166.917 129.07C166.824 128.827 166.749 128.636 166.693 128.496ZM180.415 136C179.79 134.889 179.113 133.793 178.385 132.71C177.657 131.627 176.882 130.605 176.061 129.644V136H173.905V126.298H175.683C175.991 126.606 176.332 126.984 176.705 127.432C177.078 127.88 177.456 128.361 177.839 128.874C178.231 129.378 178.618 129.905 179.001 130.456C179.384 130.997 179.743 131.52 180.079 132.024V126.298H182.249V136H180.415Z" fill="white"/>
<path d="M83.964 115.172C85.18 115.172 85.788 114.756 85.788 113.924C85.788 113.668 85.732 113.452 85.62 113.276C85.516 113.092 85.372 112.936 85.188 112.808C85.004 112.672 84.792 112.556 84.552 112.46C84.32 112.364 84.072 112.268 83.808 112.172C83.504 112.068 83.216 111.952 82.944 111.824C82.672 111.688 82.436 111.532 82.236 111.356C82.036 111.172 81.876 110.956 81.756 110.708C81.644 110.46 81.588 110.16 81.588 109.808C81.588 109.08 81.836 108.512 82.332 108.104C82.828 107.696 83.512 107.492 84.384 107.492C84.888 107.492 85.344 107.548 85.752 107.66C86.168 107.764 86.472 107.88 86.664 108.008L86.292 108.956C86.124 108.852 85.872 108.752 85.536 108.656C85.208 108.552 84.824 108.5 84.384 108.5C84.16 108.5 83.952 108.524 83.76 108.572C83.568 108.62 83.4 108.692 83.256 108.788C83.112 108.884 82.996 109.008 82.908 109.16C82.828 109.304 82.788 109.476 82.788 109.676C82.788 109.9 82.832 110.088 82.92 110.24C83.008 110.392 83.132 110.528 83.292 110.648C83.452 110.76 83.636 110.864 83.844 110.96C84.06 111.056 84.296 111.152 84.552 111.248C84.912 111.392 85.24 111.536 85.536 111.68C85.84 111.824 86.1 111.996 86.316 112.196C86.54 112.396 86.712 112.636 86.832 112.916C86.952 113.188 87.012 113.52 87.012 113.912C87.012 114.64 86.744 115.2 86.208 115.592C85.68 115.984 84.932 116.18 83.964 116.18C83.636 116.18 83.332 116.156 83.052 116.108C82.78 116.068 82.536 116.02 82.32 115.964C82.104 115.9 81.916 115.836 81.756 115.772C81.604 115.7 81.484 115.64 81.396 115.592L81.744 114.632C81.928 114.736 82.208 114.852 82.584 114.98C82.96 115.108 83.42 115.172 83.964 115.172ZM93.9747 107.684V108.692H91.3587V116H90.1947V108.692H87.5787V107.684H93.9747ZM95.2039 116V107.684H100.28V108.68H96.3679V111.152H99.8479V112.124H96.3679V115.004H100.58V116H95.2039ZM104.267 107.6C105.435 107.6 106.331 107.824 106.955 108.272C107.587 108.712 107.903 109.372 107.903 110.252C107.903 110.732 107.815 111.144 107.639 111.488C107.471 111.824 107.223 112.1 106.895 112.316C106.575 112.524 106.183 112.676 105.719 112.772C105.255 112.868 104.731 112.916 104.147 112.916H103.223V116H102.059V107.804C102.387 107.724 102.751 107.672 103.151 107.648C103.559 107.616 103.931 107.6 104.267 107.6ZM104.363 108.62C103.867 108.62 103.487 108.632 103.223 108.656V111.92H104.099C104.499 111.92 104.859 111.896 105.179 111.848C105.499 111.792 105.767 111.704 105.983 111.584C106.207 111.456 106.379 111.284 106.499 111.068C106.619 110.852 106.679 110.576 106.679 110.24C106.679 109.92 106.615 109.656 106.487 109.448C106.367 109.24 106.199 109.076 105.983 108.956C105.775 108.828 105.531 108.74 105.251 108.692C104.971 108.644 104.675 108.62 104.363 108.62ZM116.709 109.808C116.709 110.096 116.649 110.376 116.529 110.648C116.417 110.912 116.265 111.176 116.073 111.44C115.881 111.696 115.665 111.952 115.425 112.208C115.185 112.456 114.945 112.7 114.705 112.94C114.569 113.076 114.409 113.236 114.225 113.42C114.049 113.604 113.881 113.796 113.721 113.996C113.561 114.196 113.425 114.388 113.313 114.572C113.209 114.756 113.157 114.916 113.157 115.052H116.985V116H111.945C111.937 115.952 111.933 115.904 111.933 115.856C111.933 115.808 111.933 115.764 111.933 115.724C111.933 115.348 111.993 115 112.113 114.68C112.241 114.352 112.405 114.044 112.605 113.756C112.805 113.468 113.029 113.196 113.277 112.94C113.525 112.684 113.769 112.436 114.009 112.196C114.209 112.004 114.397 111.816 114.573 111.632C114.757 111.44 114.917 111.252 115.053 111.068C115.197 110.876 115.309 110.68 115.389 110.48C115.477 110.28 115.521 110.068 115.521 109.844C115.521 109.604 115.481 109.4 115.401 109.232C115.329 109.064 115.229 108.924 115.101 108.812C114.973 108.7 114.821 108.62 114.645 108.572C114.477 108.516 114.297 108.488 114.105 108.488C113.873 108.488 113.661 108.52 113.469 108.584C113.277 108.648 113.105 108.724 112.953 108.812C112.801 108.892 112.673 108.98 112.569 109.076C112.465 109.164 112.385 109.232 112.329 109.28L111.777 108.488C111.849 108.408 111.957 108.312 112.101 108.2C112.245 108.08 112.417 107.968 112.617 107.864C112.817 107.76 113.041 107.672 113.289 107.6C113.537 107.528 113.805 107.492 114.093 107.492C114.965 107.492 115.617 107.696 116.049 108.104C116.489 108.504 116.709 109.072 116.709 109.808Z" fill="#ABBCFF"/>
</g>
<circle cx="48.5" cy="121.5" r="16" stroke="white"/>
<path d="M52.4655 119.846C52.4655 120.201 52.3955 120.541 52.2555 120.868C52.1155 121.195 51.9335 121.512 51.7095 121.82C51.4855 122.119 51.2335 122.408 50.9535 122.688C50.6735 122.968 50.3982 123.234 50.1275 123.486C49.9875 123.617 49.8335 123.766 49.6655 123.934C49.5068 124.093 49.3528 124.256 49.2035 124.424C49.0542 124.592 48.9188 124.751 48.7975 124.9C48.6855 125.04 48.6155 125.157 48.5875 125.25H52.7595V127H46.2915C46.2728 126.897 46.2635 126.767 46.2635 126.608C46.2635 126.449 46.2635 126.337 46.2635 126.272C46.2635 125.824 46.3335 125.413 46.4735 125.04C46.6228 124.667 46.8142 124.321 47.0475 124.004C47.2808 123.677 47.5422 123.374 47.8315 123.094C48.1302 122.814 48.4242 122.534 48.7135 122.254C48.9375 122.039 49.1475 121.839 49.3435 121.652C49.5395 121.456 49.7122 121.269 49.8615 121.092C50.0108 120.905 50.1275 120.723 50.2115 120.546C50.2955 120.359 50.3375 120.173 50.3375 119.986C50.3375 119.575 50.2208 119.286 49.9875 119.118C49.7542 118.95 49.4648 118.866 49.1195 118.866C48.8675 118.866 48.6295 118.908 48.4055 118.992C48.1908 119.067 47.9902 119.16 47.8035 119.272C47.6262 119.375 47.4722 119.482 47.3415 119.594C47.2108 119.697 47.1128 119.781 47.0475 119.846L46.0115 118.39C46.4222 118.007 46.8982 117.695 47.4395 117.452C47.9902 117.2 48.5782 117.074 49.2035 117.074C49.7728 117.074 50.2628 117.139 50.6735 117.27C51.0842 117.401 51.4202 117.587 51.6815 117.83C51.9522 118.063 52.1482 118.353 52.2695 118.698C52.4002 119.034 52.4655 119.417 52.4655 119.846Z" fill="white"/>
</g>
<g clip-path="url(#clip4_1_244)">
<g clip-path="url(#clip5_1_244)">
<path d="M88.616 201C88.5133 200.664 88.3967 200.319 88.266 199.964C88.1447 199.609 88.0233 199.255 87.902 198.9H84.122C84.0007 199.255 83.8747 199.609 83.744 199.964C83.6227 200.319 83.5107 200.664 83.408 201H81.14C81.504 199.955 81.8493 198.989 82.176 198.102C82.5027 197.215 82.82 196.38 83.128 195.596C83.4453 194.812 83.7533 194.07 84.052 193.37C84.36 192.661 84.6773 191.97 85.004 191.298H87.09C87.4073 191.97 87.72 192.661 88.028 193.37C88.336 194.07 88.644 194.812 88.952 195.596C89.2693 196.38 89.5913 197.215 89.918 198.102C90.2447 198.989 90.59 199.955 90.954 201H88.616ZM85.998 193.496C85.9513 193.636 85.8813 193.827 85.788 194.07C85.6947 194.313 85.5873 194.593 85.466 194.91C85.3447 195.227 85.2093 195.577 85.06 195.96C84.92 196.343 84.7753 196.744 84.626 197.164H87.384C87.2347 196.744 87.09 196.343 86.95 195.96C86.81 195.577 86.6747 195.227 86.544 194.91C86.4227 194.593 86.3153 194.313 86.222 194.07C86.1287 193.827 86.054 193.636 85.998 193.496ZM95.3938 199.222C95.4965 199.231 95.6132 199.241 95.7438 199.25C95.8838 199.25 96.0472 199.25 96.2338 199.25C97.3258 199.25 98.1332 198.975 98.6558 198.424C99.1878 197.873 99.4538 197.113 99.4538 196.142C99.4538 195.125 99.2018 194.355 98.6978 193.832C98.1938 193.309 97.3958 193.048 96.3038 193.048C96.1545 193.048 96.0005 193.053 95.8418 193.062C95.6832 193.062 95.5338 193.071 95.3938 193.09V199.222ZM101.708 196.142C101.708 196.982 101.577 197.715 101.316 198.34C101.055 198.965 100.681 199.483 100.196 199.894C99.7198 200.305 99.1365 200.613 98.4458 200.818C97.7552 201.023 96.9805 201.126 96.1218 201.126C95.7298 201.126 95.2725 201.107 94.7498 201.07C94.2272 201.042 93.7138 200.977 93.2098 200.874V191.424C93.7138 191.331 94.2365 191.27 94.7778 191.242C95.3285 191.205 95.7998 191.186 96.1918 191.186C97.0225 191.186 97.7738 191.279 98.4458 191.466C99.1272 191.653 99.7105 191.947 100.196 192.348C100.681 192.749 101.055 193.263 101.316 193.888C101.577 194.513 101.708 195.265 101.708 196.142ZM106.716 199.222C106.819 199.231 106.935 199.241 107.066 199.25C107.206 199.25 107.369 199.25 107.556 199.25C108.648 199.25 109.455 198.975 109.978 198.424C110.51 197.873 110.776 197.113 110.776 196.142C110.776 195.125 110.524 194.355 110.02 193.832C109.516 193.309 108.718 193.048 107.626 193.048C107.477 193.048 107.323 193.053 107.164 193.062C107.005 193.062 106.856 193.071 106.716 193.09V199.222ZM113.03 196.142C113.03 196.982 112.899 197.715 112.638 198.34C112.377 198.965 112.003 199.483 111.518 199.894C111.042 200.305 110.459 200.613 109.768 200.818C109.077 201.023 108.303 201.126 107.444 201.126C107.052 201.126 106.595 201.107 106.072 201.07C105.549 201.042 105.036 200.977 104.532 200.874V191.424C105.036 191.331 105.559 191.27 106.1 191.242C106.651 191.205 107.122 191.186 107.514 191.186C108.345 191.186 109.096 191.279 109.768 191.466C110.449 191.653 111.033 191.947 111.518 192.348C112.003 192.749 112.377 193.263 112.638 193.888C112.899 194.513 113.03 195.265 113.03 196.142ZM115.358 195.876H119.418V197.766H115.358V195.876ZM123.993 196.142C123.993 196.618 124.049 197.047 124.161 197.43C124.282 197.813 124.45 198.144 124.665 198.424C124.889 198.695 125.16 198.905 125.477 199.054C125.794 199.203 126.158 199.278 126.569 199.278C126.97 199.278 127.33 199.203 127.647 199.054C127.974 198.905 128.244 198.695 128.459 198.424C128.683 198.144 128.851 197.813 128.963 197.43C129.084 197.047 129.145 196.618 129.145 196.142C129.145 195.666 129.084 195.237 128.963 194.854C128.851 194.462 128.683 194.131 128.459 193.86C128.244 193.58 127.974 193.365 127.647 193.216C127.33 193.067 126.97 192.992 126.569 192.992C126.158 192.992 125.794 193.071 125.477 193.23C125.16 193.379 124.889 193.594 124.665 193.874C124.45 194.145 124.282 194.476 124.161 194.868C124.049 195.251 123.993 195.675 123.993 196.142ZM131.399 196.142C131.399 196.973 131.273 197.705 131.021 198.34C130.778 198.965 130.442 199.493 130.013 199.922C129.584 200.342 129.07 200.659 128.473 200.874C127.885 201.089 127.25 201.196 126.569 201.196C125.906 201.196 125.281 201.089 124.693 200.874C124.105 200.659 123.592 200.342 123.153 199.922C122.714 199.493 122.369 198.965 122.117 198.34C121.865 197.705 121.739 196.973 121.739 196.142C121.739 195.311 121.87 194.583 122.131 193.958C122.392 193.323 122.742 192.791 123.181 192.362C123.629 191.933 124.142 191.611 124.721 191.396C125.309 191.181 125.925 191.074 126.569 191.074C127.232 191.074 127.857 191.181 128.445 191.396C129.033 191.611 129.546 191.933 129.985 192.362C130.424 192.791 130.769 193.323 131.021 193.958C131.273 194.583 131.399 195.311 131.399 196.142ZM140.73 201C140.104 199.889 139.428 198.793 138.7 197.71C137.972 196.627 137.197 195.605 136.376 194.644V201H134.22V191.298H135.998C136.306 191.606 136.646 191.984 137.02 192.432C137.393 192.88 137.771 193.361 138.154 193.874C138.546 194.378 138.933 194.905 139.316 195.456C139.698 195.997 140.058 196.52 140.394 197.024V191.298H142.564V201H140.73ZM148.448 199.334C148.756 199.334 149.008 199.311 149.204 199.264C149.409 199.208 149.572 199.138 149.694 199.054C149.815 198.961 149.899 198.853 149.946 198.732C149.992 198.611 150.016 198.475 150.016 198.326C150.016 198.009 149.866 197.747 149.568 197.542C149.269 197.327 148.756 197.099 148.028 196.856C147.71 196.744 147.393 196.618 147.076 196.478C146.758 196.329 146.474 196.147 146.222 195.932C145.97 195.708 145.764 195.442 145.606 195.134C145.447 194.817 145.368 194.434 145.368 193.986C145.368 193.538 145.452 193.137 145.62 192.782C145.788 192.418 146.026 192.11 146.334 191.858C146.642 191.606 147.015 191.415 147.454 191.284C147.892 191.144 148.387 191.074 148.938 191.074C149.591 191.074 150.156 191.144 150.632 191.284C151.108 191.424 151.5 191.578 151.808 191.746L151.178 193.468C150.907 193.328 150.604 193.207 150.268 193.104C149.941 192.992 149.544 192.936 149.078 192.936C148.555 192.936 148.177 193.011 147.944 193.16C147.72 193.3 147.608 193.519 147.608 193.818C147.608 193.995 147.65 194.145 147.734 194.266C147.818 194.387 147.934 194.499 148.084 194.602C148.242 194.695 148.42 194.784 148.616 194.868C148.821 194.943 149.045 195.022 149.288 195.106C149.792 195.293 150.23 195.479 150.604 195.666C150.977 195.843 151.285 196.053 151.528 196.296C151.78 196.539 151.966 196.823 152.088 197.15C152.209 197.477 152.27 197.873 152.27 198.34C152.27 199.245 151.952 199.95 151.318 200.454C150.683 200.949 149.726 201.196 148.448 201.196C148.018 201.196 147.631 201.168 147.286 201.112C146.94 201.065 146.632 201.005 146.362 200.93C146.1 200.855 145.872 200.776 145.676 200.692C145.489 200.608 145.33 200.529 145.2 200.454L145.816 198.718C146.105 198.877 146.46 199.021 146.88 199.152C147.309 199.273 147.832 199.334 148.448 199.334Z" fill="white"/>
<path d="M83.964 180.172C85.18 180.172 85.788 179.756 85.788 178.924C85.788 178.668 85.732 178.452 85.62 178.276C85.516 178.092 85.372 177.936 85.188 177.808C85.004 177.672 84.792 177.556 84.552 177.46C84.32 177.364 84.072 177.268 83.808 177.172C83.504 177.068 83.216 176.952 82.944 176.824C82.672 176.688 82.436 176.532 82.236 176.356C82.036 176.172 81.876 175.956 81.756 175.708C81.644 175.46 81.588 175.16 81.588 174.808C81.588 174.08 81.836 173.512 82.332 173.104C82.828 172.696 83.512 172.492 84.384 172.492C84.888 172.492 85.344 172.548 85.752 172.66C86.168 172.764 86.472 172.88 86.664 173.008L86.292 173.956C86.124 173.852 85.872 173.752 85.536 173.656C85.208 173.552 84.824 173.5 84.384 173.5C84.16 173.5 83.952 173.524 83.76 173.572C83.568 173.62 83.4 173.692 83.256 173.788C83.112 173.884 82.996 174.008 82.908 174.16C82.828 174.304 82.788 174.476 82.788 174.676C82.788 174.9 82.832 175.088 82.92 175.24C83.008 175.392 83.132 175.528 83.292 175.648C83.452 175.76 83.636 175.864 83.844 175.96C84.06 176.056 84.296 176.152 84.552 176.248C84.912 176.392 85.24 176.536 85.536 176.68C85.84 176.824 86.1 176.996 86.316 177.196C86.54 177.396 86.712 177.636 86.832 177.916C86.952 178.188 87.012 178.52 87.012 178.912C87.012 179.64 86.744 180.2 86.208 180.592C85.68 180.984 84.932 181.18 83.964 181.18C83.636 181.18 83.332 181.156 83.052 181.108C82.78 181.068 82.536 181.02 82.32 180.964C82.104 180.9 81.916 180.836 81.756 180.772C81.604 180.7 81.484 180.64 81.396 180.592L81.744 179.632C81.928 179.736 82.208 179.852 82.584 179.98C82.96 180.108 83.42 180.172 83.964 180.172ZM93.9747 172.684V173.692H91.3587V181H90.1947V173.692H87.5787V172.684H93.9747ZM95.2039 181V172.684H100.28V173.68H96.3679V176.152H99.8479V177.124H96.3679V180.004H100.58V181H95.2039ZM104.267 172.6C105.435 172.6 106.331 172.824 106.955 173.272C107.587 173.712 107.903 174.372 107.903 175.252C107.903 175.732 107.815 176.144 107.639 176.488C107.471 176.824 107.223 177.1 106.895 177.316C106.575 177.524 106.183 177.676 105.719 177.772C105.255 177.868 104.731 177.916 104.147 177.916H103.223V181H102.059V172.804C102.387 172.724 102.751 172.672 103.151 172.648C103.559 172.616 103.931 172.6 104.267 172.6ZM104.363 173.62C103.867 173.62 103.487 173.632 103.223 173.656V176.92H104.099C104.499 176.92 104.859 176.896 105.179 176.848C105.499 176.792 105.767 176.704 105.983 176.584C106.207 176.456 106.379 176.284 106.499 176.068C106.619 175.852 106.679 175.576 106.679 175.24C106.679 174.92 106.615 174.656 106.487 174.448C106.367 174.24 106.199 174.076 105.983 173.956C105.775 173.828 105.531 173.74 105.251 173.692C104.971 173.644 104.675 173.62 104.363 173.62ZM113.817 180.184C114.529 180.184 115.037 180.044 115.341 179.764C115.653 179.484 115.809 179.108 115.809 178.636C115.809 178.332 115.745 178.076 115.617 177.868C115.489 177.66 115.321 177.496 115.113 177.376C114.905 177.248 114.661 177.16 114.381 177.112C114.109 177.056 113.829 177.028 113.541 177.028H113.253V176.116H113.649C113.849 176.116 114.053 176.096 114.261 176.056C114.477 176.016 114.673 175.944 114.849 175.84C115.025 175.736 115.169 175.596 115.281 175.42C115.393 175.236 115.449 175.008 115.449 174.736C115.449 174.512 115.409 174.32 115.329 174.16C115.249 174 115.141 173.868 115.005 173.764C114.877 173.66 114.725 173.588 114.549 173.548C114.381 173.5 114.201 173.476 114.009 173.476C113.625 173.476 113.297 173.532 113.025 173.644C112.761 173.756 112.537 173.872 112.353 173.992L111.921 173.14C112.017 173.076 112.137 173.008 112.281 172.936C112.433 172.856 112.601 172.784 112.785 172.72C112.969 172.656 113.165 172.604 113.373 172.564C113.589 172.516 113.813 172.492 114.045 172.492C114.485 172.492 114.865 172.548 115.185 172.66C115.505 172.764 115.769 172.916 115.977 173.116C116.185 173.308 116.341 173.54 116.445 173.812C116.549 174.076 116.601 174.364 116.601 174.676C116.601 175.108 116.477 175.48 116.229 175.792C115.981 176.096 115.681 176.328 115.329 176.488C115.545 176.552 115.753 176.644 115.953 176.764C116.153 176.884 116.325 177.036 116.469 177.22C116.621 177.404 116.741 177.616 116.829 177.856C116.925 178.096 116.973 178.364 116.973 178.66C116.973 179.02 116.909 179.356 116.781 179.668C116.661 179.972 116.469 180.236 116.205 180.46C115.949 180.684 115.625 180.86 115.233 180.988C114.841 181.116 114.377 181.18 113.841 181.18C113.633 181.18 113.417 181.164 113.193 181.132C112.977 181.1 112.773 181.06 112.581 181.012C112.389 180.964 112.221 180.916 112.077 180.868C111.933 180.82 111.829 180.78 111.765 180.748L111.981 179.776C112.117 179.84 112.341 179.924 112.653 180.028C112.973 180.132 113.361 180.184 113.817 180.184Z" fill="#ABBCFF"/>
</g>
<circle cx="48.5" cy="186.5" r="16" stroke="white"/>
<path d="M48.7135 192.21C48.4615 192.21 48.1955 192.191 47.9155 192.154C47.6355 192.126 47.3648 192.084 47.1035 192.028C46.8422 191.972 46.6042 191.911 46.3895 191.846C46.1748 191.781 46.0068 191.72 45.8855 191.664L46.2915 189.928C46.5342 190.031 46.8422 190.143 47.2155 190.264C47.5982 190.376 48.0695 190.432 48.6295 190.432C49.2735 190.432 49.7448 190.311 50.0435 190.068C50.3422 189.825 50.4915 189.499 50.4915 189.088C50.4915 188.836 50.4355 188.626 50.3235 188.458C50.2208 188.281 50.0762 188.141 49.8895 188.038C49.7028 187.926 49.4788 187.851 49.2175 187.814C48.9655 187.767 48.6948 187.744 48.4055 187.744H47.5935V186.064H48.5175C48.7228 186.064 48.9188 186.045 49.1055 186.008C49.3015 185.971 49.4742 185.91 49.6235 185.826C49.7728 185.733 49.8895 185.611 49.9735 185.462C50.0668 185.303 50.1135 185.107 50.1135 184.874C50.1135 184.697 50.0762 184.543 50.0015 184.412C49.9268 184.281 49.8288 184.174 49.7075 184.09C49.5955 184.006 49.4602 183.945 49.3015 183.908C49.1522 183.861 48.9982 183.838 48.8395 183.838C48.4382 183.838 48.0648 183.899 47.7195 184.02C47.3835 184.141 47.0755 184.291 46.7955 184.468L46.0535 182.942C46.2028 182.849 46.3755 182.751 46.5715 182.648C46.7768 182.545 47.0008 182.452 47.2435 182.368C47.4862 182.284 47.7428 182.214 48.0135 182.158C48.2935 182.102 48.5875 182.074 48.8955 182.074C49.4648 182.074 49.9548 182.144 50.3655 182.284C50.7855 182.415 51.1308 182.606 51.4015 182.858C51.6722 183.101 51.8728 183.39 52.0035 183.726C52.1342 184.053 52.1995 184.412 52.1995 184.804C52.1995 185.187 52.0922 185.56 51.8775 185.924C51.6628 186.279 51.3735 186.549 51.0095 186.736C51.5135 186.941 51.9008 187.249 52.1715 187.66C52.4515 188.061 52.5915 188.547 52.5915 189.116C52.5915 189.564 52.5168 189.979 52.3675 190.362C52.2182 190.735 51.9848 191.062 51.6675 191.342C51.3502 191.613 50.9442 191.827 50.4495 191.986C49.9642 192.135 49.3855 192.21 48.7135 192.21Z" fill="white"/>
</g>
<g clip-path="url(#clip6_1_244)">
<g clip-path="url(#clip7_1_244)">
<path d="M84.766 264.334C85.074 264.334 85.326 264.311 85.522 264.264C85.7273 264.208 85.8907 264.138 86.012 264.054C86.1333 263.961 86.2173 263.853 86.264 263.732C86.3107 263.611 86.334 263.475 86.334 263.326C86.334 263.009 86.1847 262.747 85.886 262.542C85.5873 262.327 85.074 262.099 84.346 261.856C84.0287 261.744 83.7113 261.618 83.394 261.478C83.0767 261.329 82.792 261.147 82.54 260.932C82.288 260.708 82.0827 260.442 81.924 260.134C81.7653 259.817 81.686 259.434 81.686 258.986C81.686 258.538 81.77 258.137 81.938 257.782C82.106 257.418 82.344 257.11 82.652 256.858C82.96 256.606 83.3333 256.415 83.772 256.284C84.2107 256.144 84.7053 256.074 85.256 256.074C85.9093 256.074 86.474 256.144 86.95 256.284C87.426 256.424 87.818 256.578 88.126 256.746L87.496 258.468C87.2253 258.328 86.922 258.207 86.586 258.104C86.2593 257.992 85.8627 257.936 85.396 257.936C84.8733 257.936 84.4953 258.011 84.262 258.16C84.038 258.3 83.926 258.519 83.926 258.818C83.926 258.995 83.968 259.145 84.052 259.266C84.136 259.387 84.2527 259.499 84.402 259.602C84.5607 259.695 84.738 259.784 84.934 259.868C85.1393 259.943 85.3633 260.022 85.606 260.106C86.11 260.293 86.5487 260.479 86.922 260.666C87.2953 260.843 87.6033 261.053 87.846 261.296C88.098 261.539 88.2847 261.823 88.406 262.15C88.5273 262.477 88.588 262.873 88.588 263.34C88.588 264.245 88.2707 264.95 87.636 265.454C87.0013 265.949 86.0447 266.196 84.766 266.196C84.3367 266.196 83.9493 266.168 83.604 266.112C83.2587 266.065 82.9507 266.005 82.68 265.93C82.4187 265.855 82.19 265.776 81.994 265.692C81.8073 265.608 81.6487 265.529 81.518 265.454L82.134 263.718C82.4233 263.877 82.778 264.021 83.198 264.152C83.6273 264.273 84.15 264.334 84.766 264.334ZM95.0624 266.196C94.3811 266.196 93.7931 266.103 93.2984 265.916C92.8038 265.72 92.3931 265.454 92.0664 265.118C91.7491 264.773 91.5111 264.367 91.3524 263.9C91.2031 263.424 91.1284 262.901 91.1284 262.332V256.298H93.3124V262.15C93.3124 262.542 93.3544 262.878 93.4384 263.158C93.5318 263.429 93.6531 263.653 93.8024 263.83C93.9611 263.998 94.1478 264.119 94.3624 264.194C94.5864 264.269 94.8291 264.306 95.0904 264.306C95.6224 264.306 96.0518 264.143 96.3784 263.816C96.7144 263.489 96.8824 262.934 96.8824 262.15V256.298H99.0664V262.332C99.0664 262.901 98.9871 263.424 98.8284 263.9C98.6698 264.376 98.4271 264.787 98.1004 265.132C97.7738 265.468 97.3584 265.729 96.8544 265.916C96.3504 266.103 95.7531 266.196 95.0624 266.196ZM104.743 256.298C104.911 256.606 105.102 256.989 105.317 257.446C105.541 257.894 105.77 258.384 106.003 258.916C106.246 259.439 106.484 259.975 106.717 260.526C106.95 261.077 107.17 261.595 107.375 262.08C107.58 261.595 107.8 261.077 108.033 260.526C108.266 259.975 108.5 259.439 108.733 258.916C108.976 258.384 109.204 257.894 109.419 257.446C109.643 256.989 109.839 256.606 110.007 256.298H111.995C112.088 256.942 112.172 257.665 112.247 258.468C112.331 259.261 112.401 260.092 112.457 260.96C112.522 261.819 112.578 262.682 112.625 263.55C112.681 264.418 112.728 265.235 112.765 266H110.637C110.609 265.057 110.572 264.031 110.525 262.92C110.478 261.809 110.408 260.689 110.315 259.56C110.147 259.952 109.96 260.386 109.755 260.862C109.55 261.338 109.344 261.814 109.139 262.29C108.943 262.766 108.752 263.223 108.565 263.662C108.378 264.091 108.22 264.46 108.089 264.768H106.563C106.432 264.46 106.274 264.091 106.087 263.662C105.9 263.223 105.704 262.766 105.499 262.29C105.303 261.814 105.102 261.338 104.897 260.862C104.692 260.386 104.505 259.952 104.337 259.56C104.244 260.689 104.174 261.809 104.127 262.92C104.08 264.031 104.043 265.057 104.015 266H101.887C101.924 265.235 101.966 264.418 102.013 263.55C102.069 262.682 102.125 261.819 102.181 260.96C102.246 260.092 102.316 259.261 102.391 258.468C102.475 257.665 102.564 256.942 102.657 256.298H104.743ZM118.307 256.298C118.475 256.606 118.667 256.989 118.881 257.446C119.105 257.894 119.334 258.384 119.567 258.916C119.81 259.439 120.048 259.975 120.281 260.526C120.515 261.077 120.734 261.595 120.939 262.08C121.145 261.595 121.364 261.077 121.597 260.526C121.831 259.975 122.064 259.439 122.297 258.916C122.54 258.384 122.769 257.894 122.983 257.446C123.207 256.989 123.403 256.606 123.571 256.298H125.559C125.653 256.942 125.737 257.665 125.811 258.468C125.895 259.261 125.965 260.092 126.021 260.96C126.087 261.819 126.143 262.682 126.189 263.55C126.245 264.418 126.292 265.235 126.329 266H124.201C124.173 265.057 124.136 264.031 124.089 262.92C124.043 261.809 123.973 260.689 123.879 259.56C123.711 259.952 123.525 260.386 123.319 260.862C123.114 261.338 122.909 261.814 122.703 262.29C122.507 262.766 122.316 263.223 122.129 263.662C121.943 264.091 121.784 264.46 121.653 264.768H120.127C119.997 264.46 119.838 264.091 119.651 263.662C119.465 263.223 119.269 262.766 119.063 262.29C118.867 261.814 118.667 261.338 118.461 260.862C118.256 260.386 118.069 259.952 117.901 259.56C117.808 260.689 117.738 261.809 117.691 262.92C117.645 264.031 117.607 265.057 117.579 266H115.451C115.489 265.235 115.531 264.418 115.577 263.55C115.633 262.682 115.689 261.819 115.745 260.96C115.811 260.092 115.881 259.261 115.955 258.468C116.039 257.665 116.128 256.942 116.221 256.298H118.307ZM135.792 266C135.689 265.664 135.572 265.319 135.442 264.964C135.32 264.609 135.199 264.255 135.078 263.9H131.298C131.176 264.255 131.05 264.609 130.92 264.964C130.798 265.319 130.686 265.664 130.584 266H128.316C128.68 264.955 129.025 263.989 129.352 263.102C129.678 262.215 129.996 261.38 130.304 260.596C130.621 259.812 130.929 259.07 131.228 258.37C131.536 257.661 131.853 256.97 132.18 256.298H134.266C134.583 256.97 134.896 257.661 135.204 258.37C135.512 259.07 135.82 259.812 136.128 260.596C136.445 261.38 136.767 262.215 137.094 263.102C137.42 263.989 137.766 264.955 138.13 266H135.792ZM133.174 258.496C133.127 258.636 133.057 258.827 132.964 259.07C132.87 259.313 132.763 259.593 132.642 259.91C132.52 260.227 132.385 260.577 132.236 260.96C132.096 261.343 131.951 261.744 131.802 262.164H134.56C134.41 261.744 134.266 261.343 134.126 260.96C133.986 260.577 133.85 260.227 133.72 259.91C133.598 259.593 133.491 259.313 133.398 259.07C133.304 258.827 133.23 258.636 133.174 258.496ZM143.228 256.186C144.684 256.186 145.799 256.447 146.574 256.97C147.348 257.483 147.736 258.286 147.736 259.378C147.736 260.059 147.577 260.615 147.26 261.044C146.952 261.464 146.504 261.795 145.916 262.038C146.112 262.281 146.317 262.561 146.532 262.878C146.746 263.186 146.956 263.513 147.162 263.858C147.376 264.194 147.582 264.549 147.778 264.922C147.974 265.286 148.156 265.645 148.324 266H145.874C145.696 265.683 145.514 265.361 145.328 265.034C145.15 264.707 144.964 264.39 144.768 264.082C144.581 263.774 144.394 263.485 144.208 263.214C144.021 262.934 143.834 262.682 143.648 262.458H142.57V266H140.386V256.438C140.862 256.345 141.352 256.279 141.856 256.242C142.369 256.205 142.826 256.186 143.228 256.186ZM143.354 258.048C143.195 258.048 143.05 258.053 142.92 258.062C142.798 258.071 142.682 258.081 142.57 258.09V260.722H143.186C144.007 260.722 144.595 260.619 144.95 260.414C145.304 260.209 145.482 259.859 145.482 259.364C145.482 258.888 145.3 258.552 144.936 258.356C144.581 258.151 144.054 258.048 143.354 258.048ZM153.815 260.288C154.207 259.625 154.58 258.963 154.935 258.3C155.289 257.637 155.616 256.97 155.915 256.298H158.323C157.791 257.343 157.24 258.356 156.671 259.336C156.101 260.316 155.499 261.301 154.865 262.29V266H152.681V262.318C152.046 261.329 151.439 260.339 150.861 259.35C150.291 258.361 149.741 257.343 149.209 256.298H151.743C152.041 256.97 152.363 257.637 152.709 258.3C153.054 258.963 153.423 259.625 153.815 260.288Z" fill="white"/>
<path d="M83.964 245.172C85.18 245.172 85.788 244.756 85.788 243.924C85.788 243.668 85.732 243.452 85.62 243.276C85.516 243.092 85.372 242.936 85.188 242.808C85.004 242.672 84.792 242.556 84.552 242.46C84.32 242.364 84.072 242.268 83.808 242.172C83.504 242.068 83.216 241.952 82.944 241.824C82.672 241.688 82.436 241.532 82.236 241.356C82.036 241.172 81.876 240.956 81.756 240.708C81.644 240.46 81.588 240.16 81.588 239.808C81.588 239.08 81.836 238.512 82.332 238.104C82.828 237.696 83.512 237.492 84.384 237.492C84.888 237.492 85.344 237.548 85.752 237.66C86.168 237.764 86.472 237.88 86.664 238.008L86.292 238.956C86.124 238.852 85.872 238.752 85.536 238.656C85.208 238.552 84.824 238.5 84.384 238.5C84.16 238.5 83.952 238.524 83.76 238.572C83.568 238.62 83.4 238.692 83.256 238.788C83.112 238.884 82.996 239.008 82.908 239.16C82.828 239.304 82.788 239.476 82.788 239.676C82.788 239.9 82.832 240.088 82.92 240.24C83.008 240.392 83.132 240.528 83.292 240.648C83.452 240.76 83.636 240.864 83.844 240.96C84.06 241.056 84.296 241.152 84.552 241.248C84.912 241.392 85.24 241.536 85.536 241.68C85.84 241.824 86.1 241.996 86.316 242.196C86.54 242.396 86.712 242.636 86.832 242.916C86.952 243.188 87.012 243.52 87.012 243.912C87.012 244.64 86.744 245.2 86.208 245.592C85.68 245.984 84.932 246.18 83.964 246.18C83.636 246.18 83.332 246.156 83.052 246.108C82.78 246.068 82.536 246.02 82.32 245.964C82.104 245.9 81.916 245.836 81.756 245.772C81.604 245.7 81.484 245.64 81.396 245.592L81.744 244.632C81.928 244.736 82.208 244.852 82.584 244.98C82.96 245.108 83.42 245.172 83.964 245.172ZM93.9747 237.684V238.692H91.3587V246H90.1947V238.692H87.5787V237.684H93.9747ZM95.2039 246V237.684H100.28V238.68H96.3679V241.152H99.8479V242.124H96.3679V245.004H100.58V246H95.2039ZM104.267 237.6C105.435 237.6 106.331 237.824 106.955 238.272C107.587 238.712 107.903 239.372 107.903 240.252C107.903 240.732 107.815 241.144 107.639 241.488C107.471 241.824 107.223 242.1 106.895 242.316C106.575 242.524 106.183 242.676 105.719 242.772C105.255 242.868 104.731 242.916 104.147 242.916H103.223V246H102.059V237.804C102.387 237.724 102.751 237.672 103.151 237.648C103.559 237.616 103.931 237.6 104.267 237.6ZM104.363 238.62C103.867 238.62 103.487 238.632 103.223 238.656V241.92H104.099C104.499 241.92 104.859 241.896 105.179 241.848C105.499 241.792 105.767 241.704 105.983 241.584C106.207 241.456 106.379 241.284 106.499 241.068C106.619 240.852 106.679 240.576 106.679 240.24C106.679 239.92 106.615 239.656 106.487 239.448C106.367 239.24 106.199 239.076 105.983 238.956C105.775 238.828 105.531 238.74 105.251 238.692C104.971 238.644 104.675 238.62 104.363 238.62ZM111.585 243.12C111.737 242.768 111.945 242.36 112.209 241.896C112.473 241.424 112.769 240.94 113.097 240.444C113.433 239.948 113.789 239.46 114.165 238.98C114.549 238.5 114.933 238.068 115.317 237.684H116.385V242.964H117.369V243.876H116.385V246H115.305V243.876H111.585V243.12ZM115.305 239.004C115.065 239.26 114.821 239.548 114.573 239.868C114.333 240.18 114.097 240.508 113.865 240.852C113.633 241.196 113.413 241.548 113.205 241.908C113.005 242.268 112.825 242.62 112.665 242.964H115.305V239.004Z" fill="#ABBCFF"/>
</g>
<circle cx="48.5" cy="251.5" r="16" stroke="white"/>
<path d="M49.9875 249.846C49.6235 250.322 49.2362 250.84 48.8255 251.4C48.4148 251.96 48.0695 252.534 47.7895 253.122H49.9875V249.846ZM52.0315 247.298V253.122H53.0675V254.83H52.0315V257H49.9875V254.83H45.8015V253.304C46.0068 252.893 46.2635 252.431 46.5715 251.918C46.8795 251.395 47.2202 250.863 47.5935 250.322C47.9762 249.771 48.3775 249.235 48.7975 248.712C49.2175 248.189 49.6375 247.718 50.0575 247.298H52.0315Z" fill="white"/>
</g>
<defs>
<clipPath id="clip0_1_244">
<rect width="135" height="33" fill="white" transform="translate(32 40)"/>
</clipPath>
<clipPath id="clip1_1_244">
<rect width="86" height="33" fill="white" transform="translate(81 40)"/>
</clipPath>
<clipPath id="clip2_1_244">
<rect width="153" height="33" fill="white" transform="translate(32 105)"/>
</clipPath>
<clipPath id="clip3_1_244">
<rect width="104" height="33" fill="white" transform="translate(81 105)"/>
</clipPath>
<clipPath id="clip4_1_244">
<rect width="122" height="33" fill="white" transform="translate(32 170)"/>
</clipPath>
<clipPath id="clip5_1_244">
<rect width="73" height="33" fill="white" transform="translate(81 170)"/>
</clipPath>
<clipPath id="clip6_1_244">
<rect width="128" height="33" fill="white" transform="translate(32 235)"/>
</clipPath>
<clipPath id="clip7_1_244">
<rect width="79" height="33" fill="white" transform="translate(81 235)"/>
</clipPath>
</defs>
</svg>
